<svg width="35" height="22" viewBox="0 0 35 22" fill="none" xmlns="http://www.w3.org/2000/svg">
<path fill-rule="evenodd" clip-rule="evenodd" d="M0.712555 10.9959C0.712555 11.2927 0.840211 11.5773 1.06744 11.7872C1.29467 11.997 1.60286 12.1149 1.92421 12.1149H30.5024L22.8762 19.156C22.6487 19.3661 22.5209 19.6511 22.5209 19.9482C22.5209 20.2454 22.6487 20.5304 22.8762 20.7405C23.1037 20.9507 23.4123 21.0687 23.734 21.0687C24.0558 21.0687 24.3644 20.9507 24.5919 20.7405L34.2852 11.7882C34.398 11.6842 34.4875 11.5607 34.5486 11.4248C34.6097 11.2888 34.6411 11.1431 34.6411 10.9959C34.6411 10.8487 34.6097 10.7029 34.5486 10.567C34.4875 10.431 34.398 10.3076 34.2852 10.2036L24.5919 1.25125C24.3644 1.04112 24.0558 0.923071 23.734 0.923071C23.4123 0.923071 23.1037 1.04112 22.8762 1.25125C22.6487 1.46137 22.5209 1.74636 22.5209 2.04353C22.5209 2.34069 22.6487 2.62569 22.8762 2.83581L30.5024 9.87684H1.92421C1.60286 9.87684 1.29467 9.99474 1.06744 10.2046C0.840211 10.4145 0.712555 10.6991 0.712555 10.9959Z" fill="white"/>
</svg>
