<svg width="90" height="90" viewBox="0 0 90 90" fill="none" xmlns="http://www.w3.org/2000/svg">
<path d="M6.01733 78.1841H84.1963V83.7684H6.01733V78.1841Z" fill="#05B3FD"/>
<path d="M75.8199 30.7184C76.5604 30.7184 77.2706 30.4242 77.7942 29.9006C78.3178 29.377 78.612 28.6668 78.612 27.9263V19.55C78.6118 18.9762 78.4347 18.4164 78.105 17.9467C77.7753 17.4771 77.3088 17.1205 76.7692 16.9254L46.0561 5.75698C45.4426 5.53519 44.7709 5.53519 44.1574 5.75698L13.4443 16.9254C12.9047 17.1205 12.4382 17.4771 12.1085 17.9467C11.7788 18.4164 11.6017 18.9762 11.6015 19.55V27.9263C11.6015 28.6668 11.8957 29.377 12.4193 29.9006C12.9429 30.4242 13.6531 30.7184 14.3936 30.7184H17.1857V67.0158H11.6015V72.6H78.612V67.0158H73.0278V30.7184H75.8199ZM17.1857 21.5044L45.1068 11.3412L73.0278 21.5044V25.1342H17.1857V21.5044ZM50.691 67.0158H39.5225V30.7184H50.691V67.0158ZM22.7699 30.7184H33.9383V67.0158H22.7699V30.7184ZM67.4436 67.0158H56.2752V30.7184H67.4436V67.0158Z" fill="#05B3FD"/>
</svg>
