<svg width="92" height="92" viewBox="0 0 92 92" fill="none" xmlns="http://www.w3.org/2000/svg">
<g clip-path="url(#clip0)">
<path opacity="0.15" d="M45.1068 91.1396C69.7794 91.1396 89.7804 71.1385 89.7804 46.4659C89.7804 21.7933 69.7794 1.79224 45.1068 1.79224C20.4342 1.79224 0.433105 21.7933 0.433105 46.4659C0.433105 71.1385 20.4342 91.1396 45.1068 91.1396Z" fill="black"/>
<path d="M46.8937 89.3526C71.5663 89.3526 91.5674 69.3515 91.5674 44.6789C91.5674 20.0063 71.5663 0.00524902 46.8937 0.00524902C22.2211 0.00524902 2.22005 20.0063 2.22005 44.6789C2.22005 69.3515 22.2211 89.3526 46.8937 89.3526Z" fill="#3B97D3"/>
<path d="M46.8937 8.93994C66.6314 8.93994 82.6327 24.9412 82.6327 44.6789C82.6327 64.4166 66.6314 80.4178 46.8937 80.4178C27.156 80.4178 11.1548 64.4166 11.1548 44.6789C11.1548 24.9412 27.156 8.93994 46.8937 8.93994Z" fill="white"/>
<path fill-rule="evenodd" clip-rule="evenodd" d="M46.8937 17.8748C61.6977 17.8748 73.6979 29.875 73.6979 44.679C73.6979 59.482 61.6977 71.4832 46.8937 71.4832C32.0897 71.4832 20.0895 59.482 20.0895 44.679C20.0895 29.875 32.0897 17.8748 46.8937 17.8748Z" fill="#6BC8F2"/>
<path d="M46.8937 26.8094C56.763 26.8094 64.7632 34.8105 64.7632 44.6789C64.7632 54.5473 56.763 62.5484 46.8937 62.5484C37.0244 62.5484 29.0243 54.5473 29.0243 44.6789C29.0243 34.8105 37.0244 26.8094 46.8937 26.8094Z" fill="white"/>
<path fill-rule="evenodd" clip-rule="evenodd" d="M46.8937 35.7441C51.8284 35.7441 55.8284 39.7442 55.8284 44.6789C55.8284 49.6126 51.8284 53.6136 46.8937 53.6136C41.9591 53.6136 37.959 49.6126 37.959 44.6789C37.959 39.7442 41.9591 35.7441 46.8937 35.7441Z" fill="#E64C3C"/>
<path fill-rule="evenodd" clip-rule="evenodd" d="M79.9523 66.1223H68.3371L79.9523 77.7375H91.5674L79.9523 66.1223Z" fill="#F0C419"/>
<path fill-rule="evenodd" clip-rule="evenodd" d="M79.9522 89.3526V77.7375L68.3371 66.1223V77.7375L79.9522 89.3526Z" fill="#F29C1F"/>
<path fill-rule="evenodd" clip-rule="evenodd" d="M79.9523 66.1223H68.3371L79.9523 77.7375H91.5674L79.9523 66.1223Z" fill="#F0C419"/>
<path opacity="0.15" d="M45.499 43.2841L13.9433 74.8398C14.5487 75.4971 15.1736 76.1362 15.8169 76.7563L47.3941 45.1792C47.5221 45.0556 47.6242 44.9077 47.6944 44.7442C47.7646 44.5807 47.8016 44.4048 47.8032 44.2269C47.8047 44.0489 47.7708 43.8724 47.7034 43.7077C47.636 43.543 47.5365 43.3934 47.4107 43.2675C47.2848 43.1417 47.1352 43.0422 46.9705 42.9748C46.8058 42.9074 46.6293 42.8735 46.4514 42.8751C46.2734 42.8766 46.0975 42.9136 45.934 42.9838C45.7705 43.054 45.6226 43.1561 45.499 43.2841Z" fill="black"/>
<path d="M81.17 80.3249C80.827 80.3249 80.483 80.1944 80.2212 79.9326L45.9458 45.6268C45.7053 45.3731 45.5734 45.0355 45.5781 44.686C45.5829 44.3365 45.7239 44.0026 45.9712 43.7555C46.2186 43.5084 46.5526 43.3677 46.9021 43.3633C47.2516 43.3588 47.5891 43.4911 47.8426 43.7318L82.1189 78.0367C82.3061 78.2243 82.4335 78.4633 82.485 78.7233C82.5364 78.9832 82.5097 79.2527 82.4082 79.4975C82.3067 79.7423 82.1349 79.9516 81.9145 80.0988C81.6942 80.2461 81.4351 80.3248 81.17 80.3249Z" fill="#E57E25"/>
</g>
<defs>
<clipPath id="clip0">
<rect width="91.1343" height="91.1343" fill="white" transform="translate(0.433105 0.00524902)"/>
</clipPath>
</defs>
</svg>
