<svg width="498" height="417" viewBox="0 0 498 417" fill="none" xmlns="http://www.w3.org/2000/svg">
<g clip-path="url(#clip0)">
<path d="M457.895 408.188L450.476 408.187L446.947 379.573H457.896L457.895 408.188Z" fill="#9E616A"/>
<path d="M459.787 415.379L435.866 415.378V415.076C435.867 412.606 436.848 410.238 438.594 408.492C440.34 406.746 442.708 405.765 445.177 405.765H445.178L459.787 405.766L459.787 415.379Z" fill="#2F2E41"/>
<path d="M429.455 408.188L422.036 408.187L418.507 379.573H429.456L429.455 408.188Z" fill="#9E616A"/>
<path d="M431.347 415.379L407.426 415.378V415.076C407.426 412.606 408.407 410.238 410.153 408.492C411.899 406.746 414.267 405.765 416.737 405.765H416.737L431.347 405.766L431.347 415.379Z" fill="#2F2E41"/>
<path d="M108.949 414.272V184.444C108.949 183.029 109.512 181.671 110.512 180.67C111.513 179.669 112.871 179.107 114.286 179.107H138.104C139.519 179.107 140.877 179.669 141.877 180.67C142.878 181.671 143.441 183.029 143.441 184.444V414.871L108.949 414.272Z" fill="#BAC2C9"/>
<path d="M187.614 414.992V232.248C187.614 230.833 188.176 229.475 189.177 228.474C190.178 227.473 191.536 226.911 192.951 226.911H216.768C218.184 226.911 219.541 227.473 220.542 228.474C221.543 229.475 222.105 230.833 222.105 232.248V414.599L187.614 414.992Z" fill="#BAC2C9"/>
<path d="M47.8322 197.877C47.4817 197.877 47.1386 197.775 46.8445 197.585C46.5504 197.394 46.3179 197.122 46.175 196.802C46.0321 196.482 45.985 196.127 46.0393 195.781C46.0936 195.434 46.2471 195.111 46.4811 194.85L126.117 106.025L204.491 150.035L283.33 14.1881L363.645 80.2938C363.83 80.4452 363.982 80.6315 364.095 80.8419C364.207 81.0524 364.276 81.2829 364.3 81.5203C364.323 81.7577 364.299 81.9973 364.229 82.2254C364.16 82.4536 364.046 82.6658 363.895 82.85C363.743 83.0342 363.557 83.1867 363.346 83.2988C363.135 83.4109 362.905 83.4804 362.667 83.5033C362.43 83.5263 362.19 83.5022 361.962 83.4325C361.734 83.3628 361.522 83.2489 361.338 83.0971L284.324 19.7086L205.834 154.953L126.878 110.616L49.1844 197.274C49.0143 197.464 48.8059 197.616 48.5729 197.72C48.3398 197.824 48.0874 197.878 47.8322 197.877Z" fill="#BAC2C9"/>
<path d="M47.5303 213.005C56.8877 213.005 64.4734 205.419 64.4734 196.062C64.4734 186.704 56.8877 179.119 47.5303 179.119C38.1728 179.119 30.5871 186.704 30.5871 196.062C30.5871 205.419 38.1728 213.005 47.5303 213.005Z" fill="#FFD037"/>
<path d="M126.195 125.264C135.552 125.264 143.138 117.678 143.138 108.32C143.138 98.963 135.552 91.3773 126.195 91.3773C116.837 91.3773 109.252 98.963 109.252 108.32C109.252 117.678 116.837 125.264 126.195 125.264Z" fill="#CCCCCC"/>
<path d="M204.86 169.437C214.217 169.437 221.803 161.851 221.803 152.494C221.803 143.136 214.217 135.551 204.86 135.551C195.502 135.551 187.917 143.136 187.917 152.494C187.917 161.851 195.502 169.437 204.86 169.437Z" fill="#E6E6E6"/>
<path d="M283.524 33.8916C292.882 33.8916 300.467 26.3059 300.467 16.9484C300.467 7.59096 292.882 0.00524902 283.524 0.00524902C274.167 0.00524902 266.581 7.59096 266.581 16.9484C266.581 26.3059 274.167 33.8916 283.524 33.8916Z" fill="#FFD037"/>
<path d="M434.803 160.079C444.16 160.079 451.746 152.493 451.746 143.136C451.746 133.778 444.16 126.193 434.803 126.193C425.445 126.193 417.859 133.778 417.859 143.136C417.859 152.493 425.445 160.079 434.803 160.079Z" fill="#FFD037"/>
<path d="M428.812 275.123C435.153 275.887 451.37 270.102 452.249 278.903C460.596 303.474 460.348 397.661 460.348 397.661L447.641 398.266C447.641 398.266 437.486 323.429 432.685 307.418C430.275 326.878 430.697 401.291 430.697 401.291L419.2 401.896C419.2 401.896 408.887 338.53 408.828 319.932C407.575 306.309 410.649 286.121 409.333 272.951C415.621 274.944 422.24 275.682 428.812 275.123L428.812 275.123Z" fill="#BAC2C9"/>
<path d="M344.943 414.178V149.287C344.943 145.89 347.333 143.136 350.28 143.136H374.098C377.045 143.136 379.435 145.889 379.435 149.287V414.871L344.943 414.178Z" fill="#BAC2C9"/>
<path d="M407.24 203.841C404.696 198.642 401.59 193.737 397.975 189.216C397.22 188.333 396.532 187.394 395.918 186.408C394.617 184.151 394.23 181.5 393.407 179.032C391.107 172.109 385.371 166.548 383.973 159.39C383.465 156.788 379.171 164.35 380.3 167.577C382.315 173.416 382.575 179.6 385.141 185.24C387.707 190.88 390.72 196.289 392.935 202.056C394.193 205.33 395.198 208.712 397.044 211.738C398.889 214.764 401.769 217.299 405.249 217.753C405.225 215.559 405.558 213.377 406.235 211.29C406.992 208.906 408.335 206.098 407.24 203.841Z" fill="#9E616A"/>
<path d="M445.307 207.762C445.152 203.484 445.82 199.215 447.274 195.188C447.831 193.645 448.484 192.078 448.43 190.438C448.351 188.913 447.625 187.515 446.965 186.136C444.69 181.385 443.093 176.351 441.519 171.328L438.494 161.858C437.507 161.135 443.268 160.884 444.497 162.585C448.515 168.164 451.558 174.572 454.741 180.665C455.553 182.117 456.245 183.633 456.811 185.198C457.588 187.733 457.956 190.376 457.9 193.028C457.9 197.984 457.246 202.921 456.569 207.835C456.139 210.915 455.576 214.267 453.247 216.307C450.826 213.208 448.394 210.183 445.307 207.762Z" fill="#9E616A"/>
<path d="M429.308 202.86C436.243 202.86 441.864 197.238 441.864 190.304C441.864 183.369 436.243 177.748 429.308 177.748C422.374 177.748 416.752 183.369 416.752 190.304C416.752 197.238 422.374 202.86 429.308 202.86Z" fill="#9E616A"/>
<path d="M419.101 177.777C418.96 177.396 418.928 176.983 419.01 176.585C419.091 176.186 419.282 175.819 419.561 175.524C419.874 175.276 420.291 175.184 420.627 174.949C421.105 174.547 421.496 174.052 421.776 173.494C422.634 172.294 423.889 171.436 425.319 171.073C426.749 170.71 428.261 170.866 429.588 171.512C431.663 172.598 432.915 174.772 434.761 176.237C435.698 176.995 436.784 177.558 437.727 178.317C439.615 179.948 440.957 182.119 441.572 184.536C442.184 186.938 442.541 189.397 442.638 191.873C442.736 192.616 442.707 193.37 442.552 194.104C442.361 194.719 442.076 195.3 441.708 195.828C439.811 198.702 437.311 201.312 434.178 202.795C431.045 204.278 427.234 204.519 424.145 202.967C423.833 202.841 423.566 202.628 423.375 202.352C423.199 201.933 423.157 201.469 423.254 201.025C423.422 199.268 423.074 197.5 422.254 195.938C421.679 194.788 420.817 193.8 420.357 192.61C419.929 191.278 419.746 189.88 419.816 188.483C419.762 184.864 420.008 181.26 419.101 177.777Z" fill="#2D293D"/>
<path d="M30.2839 414.538V286.653C30.2839 285.013 32.6735 283.683 35.621 283.683H59.4383C62.3858 283.683 64.7754 285.014 64.7754 286.653V414.871L30.2839 414.538Z" fill="#BAC2C9"/>
<path d="M496.728 416.203H1.03822C0.877733 416.203 0.723819 416.14 0.610339 416.026C0.496858 415.913 0.433105 415.759 0.433105 415.598C0.433105 415.438 0.496858 415.284 0.610339 415.17C0.723819 415.057 0.877733 414.993 1.03822 414.993H496.727C496.888 414.993 497.042 415.057 497.155 415.17C497.269 415.284 497.333 415.438 497.333 415.598C497.333 415.759 497.269 415.913 497.155 416.026C497.042 416.14 496.888 416.203 496.727 416.203H496.728Z" fill="#F1B824"/>
<path d="M266.278 414.088V113.486C266.278 109.631 268.668 106.505 271.615 106.505H295.432C298.38 106.505 300.769 109.631 300.769 113.486V414.871L266.278 414.088Z" fill="#F1B824"/>
<path d="M379.949 166.027C382.957 166.027 385.395 163.589 385.395 160.581C385.395 157.574 382.957 155.135 379.949 155.135C376.942 155.135 374.503 157.574 374.503 160.581C374.503 163.589 376.942 166.027 379.949 166.027Z" fill="#A0616A"/>
<path d="M440.461 163.607C443.469 163.607 445.907 161.169 445.907 158.161C445.907 155.153 443.469 152.715 440.461 152.715C437.453 152.715 435.015 155.153 435.015 158.161C435.015 161.169 437.453 163.607 440.461 163.607Z" fill="#A0616A"/>
<path d="M453.694 225.577C454.226 225.091 458.558 199.754 458.533 199.184C458.466 196.062 448.942 192.497 447.036 193.738C445.237 194.908 442.106 208.335 440.091 210.781L437.959 207.05H421.016L419.989 208.957C417.766 207.618 415.766 206.383 415.052 205.974C414.807 205.808 414.54 205.677 414.259 205.584C412.498 205.19 410.845 204.413 409.418 203.309C408.026 202.238 401.567 191.021 399.837 191.317C397.882 191.644 391.29 197.344 391.365 202.814C392.195 202.796 402.992 224.385 403.143 225.19C403.972 228.59 406.71 278.186 407.593 280.497C411.663 280.104 408.45 279.402 412.389 280.497C416.631 281.677 421.109 280.4 425.484 279.928C427.306 279.748 429.136 279.667 430.966 279.686C437.622 279.716 447.123 280.086 453.567 281.738C453.604 277.514 449.894 268.377 448.521 264.389C448.341 263.197 448.347 261.985 448.539 260.795C448.714 259.336 452.257 227.189 453.694 225.577Z" fill="#E6E6E6"/>
</g>
<defs>
<clipPath id="clip0">
<rect width="496.9" height="416.198" fill="white" transform="translate(0.433105 0.00524902)"/>
</clipPath>
</defs>
</svg>
