<svg width="33" height="32" viewBox="0 0 33 32" fill="none" xmlns="http://www.w3.org/2000/svg">
<path d="M31.9953 15.3239C32.6651 15.975 33 16.7387 33 17.615C33 18.4914 32.6651 19.23 31.9953 19.831L20.4801 31.0986C19.8103 31.6995 19.0246 32 18.123 32C17.2213 32 16.4614 31.6995 15.8431 31.0986L1.00468 16.6761C0.334895 16.025 0 15.2739 0 14.4225V3.15493C0 2.3036 0.322014 1.56495 0.966042 0.938967C1.61007 0.312989 2.39578 0 3.32319 0H14.8384C15.7658 0 16.5386 0.300469 17.1569 0.901408L31.9953 15.3239ZM5.75761 7.96244C6.45316 7.96244 7.04567 7.73709 7.53513 7.28639C8.02459 6.83568 8.26932 6.2723 8.26932 5.59624C8.26932 4.92019 8.02459 4.34429 7.53513 3.86854C7.04567 3.3928 6.45316 3.15493 5.75761 3.15493C5.06206 3.15493 4.48244 3.3928 4.01874 3.86854C3.55504 4.34429 3.32319 4.92019 3.32319 5.59624C3.32319 6.2723 3.55504 6.83568 4.01874 7.28639C4.48244 7.73709 5.06206 7.96244 5.75761 7.96244Z" fill="white"/>
</svg>
