<svg width="50" height="50" viewBox="0 0 50 50" fill="none" xmlns="http://www.w3.org/2000/svg">
<path d="M25 3.125C20.4433 3.13038 16.0747 4.94292 12.8526 8.16504C9.63044 11.3872 7.81789 15.7557 7.81252 20.3125C7.80706 24.0363 9.02343 27.659 11.275 30.625C11.275 30.625 11.7438 31.2422 11.8203 31.3313L25 46.875L38.186 31.3234C38.2547 31.2406 38.725 30.625 38.725 30.625L38.7266 30.6203C40.9771 27.6556 42.1929 24.0346 42.1875 20.3125C42.1821 15.7557 40.3696 11.3872 37.1475 8.16504C33.9254 4.94292 29.5568 3.13038 25 3.125V3.125ZM25 26.5625C23.7639 26.5625 22.5555 26.1959 21.5277 25.5092C20.4999 24.8224 19.6988 23.8463 19.2258 22.7043C18.7527 21.5622 18.629 20.3056 18.8701 19.0932C19.1113 17.8808 19.7065 16.7672 20.5806 15.8931C21.4547 15.019 22.5683 14.4237 23.7807 14.1826C24.9931 13.9414 26.2497 14.0652 27.3918 14.5383C28.5338 15.0113 29.5099 15.8124 30.1967 16.8402C30.8835 17.868 31.25 19.0764 31.25 20.3125C31.2479 21.9695 30.5888 23.558 29.4171 24.7296C28.2455 25.9013 26.657 26.5604 25 26.5625V26.5625Z" fill="#FFD037"/>
</svg>
