<svg width="110" height="110" viewBox="0 0 110 110" fill="none" xmlns="http://www.w3.org/2000/svg">
<path d="M104.324 35.6006C93.7644 26.0631 83.205 16.3552 72.6456 6.81775C57.1472 30.3209 30.919 51.2693 6.05342 66.4271C5.37217 69.6631 4.69092 72.7287 3.83936 75.7943C14.7394 85.6724 25.6394 95.7209 36.5394 105.599C62.2565 91.4631 89.5065 71.3662 106.027 48.5443C105.516 44.2865 104.835 40.0287 104.324 35.6006Z" fill="#699635"/>
<path d="M38.5831 92.9959C27.8534 83.1177 17.1237 73.2396 6.39404 63.5318C33.1331 48.374 55.6143 27.7662 72.1347 3.4115C82.8643 13.2896 93.594 22.9974 104.324 32.8756C87.8034 57.2302 65.3222 77.8381 38.5831 92.9959Z" fill="#83BF4F"/>
<path d="M35.8581 86.524C28.705 80.0521 21.5519 73.41 14.3987 66.9381C14.9097 66.5975 15.2503 66.4271 15.7612 66.0865C17.1237 65.235 17.4644 63.7021 16.2722 62.51L15.2503 61.4881C36.88 48.2037 55.6143 31.1725 70.2612 11.4162L71.2831 12.4381C72.4753 13.46 74.1784 13.2896 75.2003 12.0975C75.5409 11.7568 75.7112 11.2459 76.0519 10.9053C83.205 17.3771 90.3581 24.0193 97.5112 30.4912C97.1706 30.8318 97.0003 31.3428 96.6597 31.6834C95.6378 33.0459 95.8081 34.9193 97.0003 36.1115L98.0222 37.1334C83.3753 56.7193 64.6409 73.7506 43.0112 87.035L41.9894 86.0131C40.7972 84.9912 38.7534 84.8209 37.2206 85.6725C36.7097 86.0131 36.369 86.1834 35.8581 86.524ZM18.9972 67.1084C24.7878 72.3881 30.5784 77.6678 36.5394 83.1178C38.7534 82.4365 41.3081 82.6068 43.3519 83.6287C63.1081 71.0256 80.3097 55.3568 94.105 37.1334C92.9128 35.26 92.7425 32.8756 93.594 30.8318C87.8034 25.5521 82.0128 20.2725 76.0519 14.8225C74.519 16.185 72.305 16.3553 70.4315 15.3334C56.6362 33.7271 39.4347 49.3959 19.6784 61.999C20.7003 63.7021 20.53 65.7459 18.9972 67.1084Z" fill="#699635"/>
<path d="M34.4956 63.5318C36.369 62.8506 38.4128 63.0209 39.7753 64.2131C38.9237 64.8943 37.9018 65.5756 37.0503 66.2568C36.7097 65.9162 35.8581 65.9162 35.5175 66.2568C35.0065 66.5975 34.8362 67.1084 35.3472 67.449C35.6878 67.7896 36.5393 67.7896 37.0503 67.449C39.094 66.0865 41.9893 65.9162 43.5222 67.449C44.7143 68.6412 44.8847 70.3443 43.6925 71.7068C44.0331 72.0475 44.3737 72.2178 44.7143 72.5584C43.8628 73.0693 43.0112 73.7506 42.1597 74.2615C41.819 73.9209 41.4784 73.5803 41.1378 73.41C39.2643 73.9209 37.2206 73.7506 36.0284 72.5584C37.0503 71.8771 37.9018 71.3662 38.9237 70.685C39.2643 71.0256 40.1159 71.0256 40.6268 70.685C41.1378 70.3443 41.1378 69.8334 40.7972 69.4928C40.4565 69.1521 39.7753 69.1521 39.2643 69.4928C38.0722 70.3443 36.5393 70.685 35.1768 70.5147C34.155 70.3443 33.3034 70.0037 32.6222 69.4928C31.43 68.3006 31.43 66.7678 32.4518 65.4053C32.1112 65.235 31.9409 64.8943 31.6003 64.5537C32.4518 64.0428 33.3034 63.3615 34.155 62.8506C33.9847 63.0209 34.3253 63.1912 34.4956 63.5318Z" fill="#699635"/>
<path d="M74.0081 27.085C75.5409 26.0631 77.4144 26.0631 78.6066 27.2553L76.5628 29.81C76.2222 29.4693 75.5409 29.4693 75.2003 29.9803C74.8597 30.4912 74.8597 31.1725 75.2003 31.5131C75.5409 31.8537 76.2222 31.8537 76.5628 31.3428C78.0956 29.4693 80.6503 29.1287 82.1831 30.4912C83.3753 31.6834 83.7159 33.5568 83.0347 35.26C83.3753 35.6006 83.7159 35.7709 84.0566 36.1115C83.3753 36.9631 82.8644 37.6443 82.1831 38.4959C81.8425 38.1553 81.5019 37.8147 81.1612 37.6443C79.6284 38.4959 77.9253 38.4959 76.7331 37.3037C77.4144 36.4522 78.2659 35.6006 78.9472 34.749C79.2878 35.0897 79.9691 35.0897 80.3097 34.5787C80.6503 34.0678 80.6503 33.3865 80.3097 33.0459C79.9691 32.7053 79.2878 32.7053 78.9472 33.2162C78.0956 34.2381 76.7331 34.9193 75.5409 34.9193C74.6894 34.9193 73.8378 34.5787 73.1566 34.0678C71.9644 32.8756 71.6237 31.1725 72.305 29.4693C71.9644 29.299 71.7941 28.9584 71.4534 28.6178C72.1347 27.9365 72.8159 27.085 73.3269 26.2334C73.3269 26.574 73.6675 26.7443 74.0081 27.085Z" fill="#699635"/>
<path d="M68.8987 60.4662C63.4487 65.4052 54.2518 65.2349 48.9722 60.4662C43.6925 55.5271 44.0331 47.8631 49.4831 42.924C54.9331 37.9849 63.4487 37.474 68.7284 42.4131C74.1784 47.1818 74.3487 55.5271 68.8987 60.4662Z" fill="#699635"/>
<path d="M37.5612 41.7318L69.7503 71.1958C73.4972 68.1302 76.9034 64.8943 80.3097 61.488L48.2909 32.024C44.8847 35.2599 41.3081 38.4959 37.5612 41.7318Z" fill="#FFDD7D"/>
<path d="M69.9206 84.1396C73.4972 81.4146 77.0737 78.5193 80.48 75.624V61.3177C77.0737 64.724 73.4972 67.9599 69.9206 71.0256V84.1396Z" fill="#DBB471"/>
<path d="M21.0409 42.0724C22.9144 41.3911 24.4472 40.3693 25.98 39.1771C27.5128 37.9849 28.8753 36.7927 30.4081 35.4302C31.9409 34.238 33.4737 32.8755 35.1769 32.024C36.88 31.0021 39.0941 30.4912 40.9675 30.8318C39.0941 31.1724 37.3909 32.024 35.8581 33.2161C34.3253 34.238 32.9628 35.6005 31.43 36.7927C29.8972 37.9849 28.3644 39.3474 26.6612 40.3693C24.9581 41.3911 22.9144 42.0724 21.0409 42.0724Z" fill="#8D9998"/>
<path d="M68.2175 56.3787C68.2175 56.3787 76.5628 58.7631 95.9784 53.6537C115.394 48.5443 106.197 104.407 70.7722 104.407C66.855 104.407 66.6847 99.4678 77.5847 90.6115C77.5847 90.6115 62.2566 94.1881 68.8987 82.7771C68.8987 82.7771 57.9987 84.6506 62.9378 75.9646C62.9378 75.9646 65.1519 69.4928 63.1081 62.1693C63.2784 62.1693 64.4706 58.4224 68.2175 56.3787Z" fill="#E8E8E8"/>
<path d="M105.175 59.1037C105.516 74.0912 93.594 98.9568 69.9206 98.9568H69.58C67.3659 102.533 68.3878 104.577 70.7722 104.577C97.6815 104.407 109.433 72.3881 105.175 59.1037Z" fill="#D1D1D1"/>
<path d="M92.9128 67.2787C87.8034 85.6724 67.3659 87.2053 67.3659 87.2053C66.5144 91.1224 68.2175 92.8256 70.4316 92.8256C77.9253 92.9959 91.8909 80.5631 92.9128 67.2787Z" fill="#D1D1D1"/>
<path d="M78.6066 67.2787C66.5144 84.3099 62.2566 78.0084 62.2566 78.0084C59.1909 84.8209 67.1956 84.8209 68.5581 83.2881C72.4753 79.0303 78.7769 70.174 78.6066 67.2787Z" fill="#D1D1D1"/>
<path d="M69.4097 99.4678C71.4534 96.7428 74.0081 94.5287 76.5628 92.3146C79.1175 90.1006 81.6722 87.8865 84.2269 85.5021C86.6112 83.1178 88.9956 80.3928 90.6987 77.3271C92.4019 74.2615 93.2534 70.6849 92.9128 67.2787C92.5722 70.6849 91.38 73.9209 89.5065 76.6459C87.6331 79.3709 85.419 81.9256 83.0347 84.3099C80.6503 86.6943 78.0956 88.9084 75.7112 91.4631C73.1565 93.6771 70.9425 96.4021 69.4097 99.4678Z" fill="#8D9998"/>
<path d="M67.3659 87.2053C68.0472 85.3318 69.069 83.799 70.2612 82.2662C71.4534 80.7334 72.6456 79.3709 74.0081 77.8381C75.2003 76.3053 76.5628 74.7724 77.4143 73.0693C78.4362 71.3662 78.9472 69.1521 78.6065 67.2787C78.2659 69.1521 77.4143 70.8552 76.2221 72.3881C75.2003 73.9209 73.8378 75.2834 72.6456 76.8162C71.4534 78.349 70.0909 79.8818 69.069 81.5849C68.0472 83.2881 67.3659 85.3318 67.3659 87.2053Z" fill="#8D9998"/>
<path d="M51.8675 41.2209C51.8675 41.2209 49.4831 32.8756 54.5925 13.46C59.7019 -5.95566 3.83936 3.24122 3.83936 38.6662C3.83936 42.5834 8.77842 42.7537 17.6347 31.8537C17.6347 31.8537 14.0581 47.1818 25.469 40.5397C25.469 40.5397 23.5956 51.4397 32.2815 46.5006C32.2815 46.5006 38.7534 44.2865 46.0769 46.3303C46.0769 46.16 49.8237 44.9678 51.8675 41.2209Z" fill="#E8E8E8"/>
<path d="M49.1425 4.26305C34.155 3.92243 9.28935 15.8443 9.28935 39.5177V39.8584C5.71279 41.9021 3.83936 41.0506 3.83936 38.6662C3.83936 11.7568 35.8581 0.00524163 49.1425 4.26305Z" fill="#D1D1D1"/>
<path d="M40.9675 16.5255C22.5737 21.6349 21.0409 42.0724 21.0409 42.0724C17.1237 42.9239 15.4206 41.2208 15.4206 39.0068C15.2503 31.513 27.6831 17.5474 40.9675 16.5255Z" fill="#D1D1D1"/>
<path d="M40.9675 30.8318C23.9362 42.924 30.2378 47.1818 30.2378 47.1818C23.4253 50.2474 23.4253 42.2428 24.9581 40.8802C29.2159 36.9631 38.0722 30.6615 40.9675 30.8318Z" fill="#D1D1D1"/>
<path d="M8.77841 40.0287C11.5034 37.9849 13.7175 35.4302 15.9315 32.8756C18.1456 30.3209 20.3597 27.7662 22.744 25.2115C25.1284 22.8271 27.8534 20.4427 30.919 18.7396C33.9847 17.0365 37.5612 16.1849 40.9675 16.5256C37.5612 16.8662 34.3253 18.0584 31.6003 19.9318C28.8753 21.8052 26.3206 24.0193 23.9362 26.4037C21.5518 28.7881 19.3378 31.3427 16.7831 33.7271C14.3987 36.2818 11.844 38.4959 8.77841 40.0287Z" fill="#8D9998"/>
</svg>
