<svg width="50" height="50" viewBox="0 0 50 50" fill="none" xmlns="http://www.w3.org/2000/svg">
<path d="M42.6813 35.7083L34.2126 28.0083C33.8123 27.6445 33.2862 27.4504 32.7455 27.4671C32.2048 27.4839 31.6918 27.71 31.3147 28.0979L26.3293 33.225C25.1293 32.9958 22.7168 32.2437 20.2334 29.7667C17.7501 27.2812 16.998 24.8625 16.7751 23.6708L21.898 18.6833C22.2864 18.3065 22.5129 17.7934 22.5296 17.2525C22.5463 16.7116 22.3519 16.1855 21.9876 15.7854L14.2897 7.31875C13.9252 6.91741 13.4186 6.67396 12.8775 6.64012C12.3364 6.60628 11.8034 6.7847 11.3918 7.1375L6.87093 11.0146C6.51075 11.3761 6.29576 11.8572 6.26677 12.3667C6.23552 12.8875 5.63968 25.225 15.2063 34.7958C23.5522 43.1396 34.0063 43.75 36.8855 43.75C37.3063 43.75 37.5647 43.7375 37.6334 43.7333C38.1428 43.7048 38.6237 43.4889 38.9834 43.1271L42.8584 38.6042C43.2126 38.1938 43.3924 37.6613 43.3593 37.1202C43.3262 36.5791 43.0829 36.0725 42.6813 35.7083V35.7083Z" fill="#FFD037"/>
</svg>
