<svg width="34" height="30" viewBox="0 0 34 30" fill="none" xmlns="http://www.w3.org/2000/svg">
<path d="M21.1 11.5807C22.6982 11.5807 23.9952 12.8777 23.9952 14.4759V22.3325C23.9952 24.3074 23.2107 26.2015 21.8142 27.5979C20.4177 28.9944 18.5237 29.7789 16.5488 29.7789C14.5739 29.7789 12.6799 28.9944 11.2834 27.5979C9.88695 26.2015 9.10242 24.3074 9.10242 22.3325V14.4759C9.10242 12.8777 10.3978 11.5807 11.9976 11.5807H21.1V11.5807ZM8.48865 11.5807C7.90961 12.2788 7.53738 13.1524 7.46293 14.1119L7.44639 14.4759V22.3325C7.44639 23.7338 7.76403 25.0606 8.32983 26.2452C7.34924 26.5075 6.32146 26.5408 5.32595 26.3425C4.33044 26.1441 3.39389 25.7195 2.58869 25.1014C1.7835 24.4833 1.13125 23.6883 0.682373 22.7779C0.233496 21.8675 2.03486e-05 20.866 0 19.851V14.4759C2.71395e-05 13.7493 0.273256 13.0493 0.76545 12.5148C1.25764 11.9803 1.93282 11.6504 2.65694 11.5906L2.89517 11.5807H8.48865V11.5807ZM24.609 11.5807H30.1925C31.7907 11.5807 33.0877 12.8777 33.0877 14.4759V19.8526C33.0879 20.867 32.8549 21.8679 32.4067 22.7779C31.9585 23.688 31.3071 24.4828 30.5028 25.1009C29.6985 25.7191 28.7629 26.1441 27.7682 26.3431C26.7735 26.542 25.7463 26.5097 24.7661 26.2485C25.2625 25.2095 25.5669 24.0647 25.6347 22.8537L25.6496 22.3325V14.4759C25.6496 13.3757 25.2591 12.3665 24.6073 11.5807H24.609ZM16.5438 0C17.8602 0 19.1226 0.522902 20.0533 1.45367C20.9841 2.38445 21.507 3.64684 21.507 4.96315C21.507 6.27946 20.9841 7.54186 20.0533 8.47263C19.1226 9.40341 17.8602 9.92631 16.5438 9.92631C15.2275 9.92631 13.9651 9.40341 13.0344 8.47263C12.1036 7.54186 11.5807 6.27946 11.5807 4.96315C11.5807 3.64684 12.1036 2.38445 13.0344 1.45367C13.9651 0.522902 15.2275 0 16.5438 0V0ZM27.2973 1.65438C28.3943 1.65438 29.4463 2.09014 30.2219 2.86578C30.9976 3.64142 31.4333 4.69342 31.4333 5.79035C31.4333 6.88727 30.9976 7.93927 30.2219 8.71491C29.4463 9.49056 28.3943 9.92631 27.2973 9.92631C26.2004 9.92631 25.1484 9.49056 24.3728 8.71491C23.5971 7.93927 23.1614 6.88727 23.1614 5.79035C23.1614 4.69342 23.5971 3.64142 24.3728 2.86578C25.1484 2.09014 26.2004 1.65438 27.2973 1.65438ZM5.79035 1.65438C6.88727 1.65438 7.93927 2.09014 8.71491 2.86578C9.49056 3.64142 9.92631 4.69342 9.92631 5.79035C9.92631 6.88727 9.49056 7.93927 8.71491 8.71491C7.93927 9.49056 6.88727 9.92631 5.79035 9.92631C4.69342 9.92631 3.64142 9.49056 2.86578 8.71491C2.09014 7.93927 1.65438 6.88727 1.65438 5.79035C1.65438 4.69342 2.09014 3.64142 2.86578 2.86578C3.64142 2.09014 4.69342 1.65438 5.79035 1.65438V1.65438Z" fill="#FFBC00"/>
</svg>
