<svg width="69" height="49" viewBox="0 0 69 49" fill="none" xmlns="http://www.w3.org/2000/svg">
<path d="M67.4537 7.56422C67.058 6.10208 66.2861 4.76911 65.215 3.69807C64.1439 2.62702 62.8109 1.85528 61.3487 1.45969C55.9955 0 34.4529 0 34.4529 0C34.4529 0 12.9095 0.0442969 7.55712 1.50398C6.09503 1.89964 4.7621 2.67141 3.69106 3.74245C2.62002 4.81349 1.84825 6.14642 1.45259 7.60852C-0.166565 17.1197 -0.794737 31.6115 1.49689 40.7417C1.89254 42.2038 2.66432 43.5368 3.73536 44.6078C4.8064 45.6788 6.13933 46.4506 7.60142 46.8463C12.9542 48.3059 34.4972 48.3059 34.4972 48.3059C34.4972 48.3059 56.0403 48.3059 61.393 46.8463C62.8551 46.4506 64.188 45.6788 65.2591 44.6078C66.3301 43.5368 67.1019 42.2038 67.4975 40.7417C69.2049 31.2175 69.7314 16.7345 67.4533 7.56464L67.4537 7.56422Z" fill="#FF0000"/>
<path d="M27.5962 34.5043L45.4677 24.1532L27.5962 13.8016V34.5043Z" fill="white"/>
</svg>
